<svg width="133" height="124" viewBox="0 0 133 124" fill="none" xmlns="http://www.w3.org/2000/svg">
<path d="M37.5793 105.501C31.0977 105.501 24.8113 104.635 18.7201 102.903C12.7071 101.093 7.86538 98.7704 4.19507 95.9365L10.6376 81.5307C14.1518 84.1285 18.3297 86.2146 23.1714 87.789C28.0131 89.3634 32.8547 90.1506 37.6964 90.1506C43.0848 90.1506 47.0674 89.3634 49.6445 87.789C52.2215 86.1358 53.51 83.971 53.51 81.2946C53.51 79.3266 52.7291 77.7128 51.1673 76.4533C49.6835 75.115 47.7312 74.0523 45.3104 73.2651C42.9676 72.4779 39.7659 71.612 35.7051 70.6674C29.4577 69.1717 24.3427 67.676 20.3601 66.1803C16.3774 64.6846 12.9413 62.2837 10.0519 58.9774C7.24065 55.6712 5.835 51.2629 5.835 45.7525C5.835 40.9506 7.12351 36.621 9.70054 32.7637C12.2776 28.8277 16.1431 25.7182 21.2972 23.4354C26.5293 21.1525 32.8938 20.011 40.3906 20.011C45.6227 20.011 50.7377 20.6408 55.7356 21.9003C60.7335 23.1598 65.1066 24.9704 68.855 27.332L62.9982 41.8558C55.4233 37.5262 47.8484 35.3614 40.2735 35.3614C34.9632 35.3614 31.0196 36.2274 28.4426 37.9592C25.9436 39.691 24.6942 41.9739 24.6942 44.8078C24.6942 47.6418 26.1388 49.7672 29.0282 51.1842C31.9957 52.5224 36.486 53.8606 42.4991 55.1989C48.7464 56.6946 53.8614 58.1902 57.8441 59.6859C61.8268 61.1816 65.2238 63.5432 68.0351 66.7707C70.9245 69.9982 72.3692 74.3672 72.3692 79.8776C72.3692 84.6008 71.0416 88.9304 68.3865 92.8664C65.8095 96.7237 61.9049 99.7937 56.6727 102.077C51.4406 104.36 45.0761 105.501 37.5793 105.501Z" fill="url(#paint0_linear_8_22)"/>
<path d="M118.927 60.419L118.868 35.6222L106.803 56.05H102.527L90.5209 36.1535V60.419H81.6184V19.091H89.4666L104.812 44.7734L119.922 19.091H127.712L127.829 60.419H118.927Z" fill="url(#paint1_linear_8_22)"/>
<path d="M118.736 107.159L118.677 82.3622L106.612 102.79H102.337L90.3302 82.8936V107.159H81.4277V65.831H89.276L104.621 91.5134L119.732 65.831H127.521L127.639 107.159H118.736Z" fill="url(#paint2_linear_8_22)"/>
<defs>
<linearGradient id="paint0_linear_8_22" x1="4.19507" y1="40.6035" x2="76.6738" y2="49.3867" gradientUnits="userSpaceOnUse">
<stop stop-color="#6382E3"/>
<stop offset="1" stop-color="#9F63E6"/>
</linearGradient>
<linearGradient id="paint1_linear_8_22" x1="81.6184" y1="29.0459" x2="130.069" y2="37.2785" gradientUnits="userSpaceOnUse">
<stop stop-color="#6382E3"/>
<stop offset="1" stop-color="#9F63E6"/>
</linearGradient>
<linearGradient id="paint2_linear_8_22" x1="81.4277" y1="75.7859" x2="129.879" y2="84.0186" gradientUnits="userSpaceOnUse">
<stop stop-color="#6382E3"/>
<stop offset="1" stop-color="#9F63E6"/>
</linearGradient>
</defs>
</svg>
